<svg width="1000" height="1000" viewBox="0 0 1000 1000" xmlns="http://www.w3.org/2000/svg" xmlns:usvg="https://github.com/RazrFalcon/resvg" usvg:version="0.12.0">
    <defs/>
    <path fill="#ffffff" stroke="none" d="M 881.1 132.5 L 118.9 132.5 C 59 132.5 10 181.5 10 241.4 L 10 758.7 C 10 818.6 59 867.6 118.9 867.6 L 881.1 867.6 C 941 867.6 990 818.6 990 758.7 L 990 241.4 C 990 181.5 941 132.5 881.1 132.5 Z M 949.2 747.3 C 949.2 802.2 924.7 826.7 869.8 826.7 L 130.3 826.7 C 75.4 826.7 50.9 802.2 50.9 747.3 L 50.9 252.7 C 50.9 197.8 75.4 173.3 130.3 173.3 L 869.8 173.3 C 924.7 173.3 949.2 197.8 949.2 252.7 L 949.2 747.3 Z M 316.3 418.3 L 418.3 500 L 683.7 275.4 L 887.9 459.2 L 887.9 765.5 L 112.1 765.5 L 112.1 581.7 L 316.3 418.3 Z M 193.8 234.6 C 148.7 234.6 112.1 271.2 112.1 316.3 C 112.1 361.4 148.7 398 193.8 398 C 238.9 398 275.5 361.4 275.5 316.3 C 275.5 271.2 238.9 234.6 193.8 234.6 Z"/>
</svg>
