<svg width="1000" height="1000" viewBox="0 0 1000 1000" xmlns="http://www.w3.org/2000/svg">
    <defs/>
    <path fill="rgb(255,255,255)" stroke="none" transform="matrix(0.1 0 0 -0.1 0 511)" d="M 3138.8 4952.2 C 2604.4 4857.7 2008.1 4603.6 1584.5 4284.2 C 1304.3 4075.7 890.5 3639 698.2 3349 C -615 1367.9 330 -1369.2 2594.6 -2134.9 C 3409.2 -2408.6 4363.9 -2382.5 5136.2 -2059.9 C 6250.5 -1597.3 7016.3 -711 7332.4 475.1 C 7423.6 823.8 7449.7 1563.4 7378 1964.2 C 7032.6 3951.9 5116.6 5300.8 3138.8 4952.2 Z M 4341.1 3603.2 C 4973.2 3443.5 5546.7 2984.1 5833.5 2407.3 C 6042 1993.5 6100.7 1706.7 6077.9 1227.8 C 6055.1 696.7 5934.5 357.8 5621.7 -69.1 C 4973.3 -948.9 3744.8 -1238.9 2747.8 -746.9 C 2223.2 -489.5 1903.9 -166.9 1653 361 C 1050.2 1625.3 1718.2 3143.7 3060.7 3567.3 C 3334.4 3652 3373.5 3658.5 3761.3 3665 C 3992.5 3668.4 4161.9 3648.8 4341.1 3603.2 Z"/>
    <path fill="rgb(255,255,255)" stroke="none" transform="matrix(0.1 0 0 -0.1 0 511)" d="M 7277 -1193.2 C 7009.8 -1577.7 6491.7 -2069.7 6100.7 -2317.4 C 6045.3 -2350 6156.1 -2470.6 7162.9 -3483.9 C 7782 -4103 8352.2 -4650.4 8433.7 -4699.3 C 8619.4 -4810.1 8876.8 -4816.6 9069.1 -4715.6 C 9140.8 -4679.8 9339.5 -4503.8 9509 -4327.9 C 9828.3 -3995.5 9900 -3871.7 9900 -3633.9 C 9900 -3405.8 9818.5 -3308.1 8635.7 -2122 C 7997 -1483.2 7465.9 -958.6 7456.2 -958.6 C 7446.4 -961.9 7368.2 -1066.1 7277 -1193.2 Z"/>
</svg>
